<svg xmlns="http://www.w3.org/2000/svg" xmlns:xlink="http://www.w3.org/1999/xlink" width="500" zoomAndPan="magnify" viewBox="0 0 375 149.999998" height="200" preserveAspectRatio="xMidYMid meet" version="1.0"><defs><filter x="0%" y="0%" width="100%" height="100%" id="6236417c9a"><feColorMatrix values="0 0 0 0 1 0 0 0 0 1 0 0 0 0 1 0 0 0 1 0" color-interpolation-filters="sRGB"/></filter><g/><clipPath id="c736d6ea2c"><path d="M 0 0.761719 L 372.71875 0.761719 L 372.71875 68 L 0 68 Z M 0 0.761719 " clip-rule="nonzero"/></clipPath><mask id="7d6835dd15"><g filter="url(#6236417c9a)"><rect x="-82.5" width="540" fill="#000000" y="-55.999999" height="215.999996" fill-opacity="0.9"/></g></mask><clipPath id="ced96b29fc"><path d="M 0 0.761719 L 372.71875 0.761719 L 372.71875 67.960938 L 0 67.960938 Z M 0 0.761719 " clip-rule="nonzero"/></clipPath><clipPath id="222c89675a"><rect x="0" width="373" y="0" height="68"/></clipPath><clipPath id="fbebc75afc"><rect x="0" width="373" y="0" height="68"/></clipPath><clipPath id="0cef01757e"><path d="M 5 67 L 369 67 L 369 100.839844 L 5 100.839844 Z M 5 67 " clip-rule="nonzero"/></clipPath><clipPath id="ab8bb1ce83"><rect x="0" width="364" y="0" height="34"/></clipPath><clipPath id="b35e7230ff"><rect x="0" width="373" y="0" height="101"/></clipPath></defs><g transform="matrix(1, 0, 0, 1, 0, 23)"><g clip-path="url(#b35e7230ff)"><g clip-path="url(#c736d6ea2c)"><g mask="url(#7d6835dd15)"><g transform="matrix(1, 0, 0, 1, 0, -0.000000000000007105)"><g clip-path="url(#fbebc75afc)"><g clip-path="url(#ced96b29fc)"><g transform="matrix(1, 0, 0, 1, 0, -0.000000000000007105)"><g clip-path="url(#222c89675a)"><g fill="#121212" fill-opacity="1"><g transform="translate(0.000003125, 50.712292)"><g><path d="M 18.085938 0 C 29.578125 0 37.546875 -7.257812 37.546875 -18.308594 C 37.546875 -29.355469 29.578125 -36.667969 18.085938 -36.667969 L 3.628906 -36.667969 L 3.628906 0 Z M 11.433594 -29.796875 L 18.085938 -29.796875 C 25.617188 -29.796875 29.578125 -24.792969 29.578125 -18.308594 C 29.578125 -12.09375 25.34375 -6.871094 18.085938 -6.871094 L 11.433594 -6.871094 Z M 11.433594 -29.796875 "/></g></g></g><g fill="#121212" fill-opacity="1"><g transform="translate(38.308605, 50.712292)"><g><path d="M 14.84375 -10.335938 L 14.84375 -16.273438 L 1.648438 -16.273438 L 1.648438 -10.335938 Z M 14.84375 -10.335938 "/></g></g></g><g fill="#121212" fill-opacity="1"><g transform="translate(53.642833, 50.712292)"><g><path d="M 26.9375 0 L 26.9375 -6.871094 L 11.433594 -6.871094 L 11.433594 -36.667969 L 3.628906 -36.667969 L 3.628906 0 Z M 26.9375 0 "/></g></g></g><g fill="#121212" fill-opacity="1"><g transform="translate(81.233714, 50.712292)"><g><path d="M 11.433594 0 L 11.433594 -36.667969 L 3.628906 -36.667969 L 3.628906 0 Z M 11.433594 0 "/></g></g></g><g fill="#121212" fill-opacity="1"><g transform="translate(95.138903, 50.712292)"><g><path d="M 36.449219 0 L 36.449219 -36.667969 L 28.640625 -36.667969 L 28.640625 -12.917969 L 11.65625 -36.667969 L 3.628906 -36.667969 L 3.628906 0 L 11.433594 0 L 11.433594 -24.628906 L 28.917969 0 Z M 36.449219 0 "/></g></g></g><g fill="#121212" fill-opacity="1"><g transform="translate(134.052088, 50.712292)"><g><path d="M 35.019531 0 L 19.460938 -19.460938 L 34.03125 -36.667969 L 24.410156 -36.667969 L 11.433594 -20.285156 L 11.433594 -36.667969 L 3.628906 -36.667969 L 3.628906 0 L 11.433594 0 L 11.433594 -11.269531 L 14.292969 -14.679688 L 25.398438 0 Z M 35.019531 0 "/></g></g></g><g fill="#121212" fill-opacity="1"><g transform="translate(167.853758, 50.712292)"><g/></g></g><g fill="#121212" fill-opacity="1"><g transform="translate(180.769623, 50.712292)"><g><path d="M 29.578125 0 L 29.578125 -6.761719 L 11.433594 -6.761719 L 11.433594 -15.285156 L 29.191406 -15.285156 L 29.191406 -21.992188 L 11.433594 -21.992188 L 11.433594 -29.960938 L 29.578125 -29.960938 L 29.578125 -36.667969 L 3.628906 -36.667969 L 3.628906 0 Z M 29.578125 0 "/></g></g></g><g fill="#121212" fill-opacity="1"><g transform="translate(211.658269, 50.712292)"><g><path d="M 1.097656 -5.167969 C 4.5625 -1.703125 9.621094 0.660156 16.65625 0.660156 C 26.554688 0.660156 31.335938 -4.398438 31.335938 -11.105469 C 31.335938 -19.242188 23.640625 -21.054688 17.59375 -22.429688 C 13.359375 -23.417969 10.28125 -24.191406 10.28125 -26.664062 C 10.28125 -28.863281 12.148438 -30.402344 15.667969 -30.402344 C 19.242188 -30.402344 23.199219 -29.136719 26.167969 -26.386719 L 30.511719 -32.105469 C 26.882812 -35.460938 22.046875 -37.21875 16.21875 -37.21875 C 7.585938 -37.21875 2.308594 -32.269531 2.308594 -26.167969 C 2.308594 -17.976562 10.003906 -16.328125 16 -14.953125 C 20.230469 -13.964844 23.417969 -13.03125 23.417969 -10.28125 C 23.417969 -8.191406 21.332031 -6.15625 17.042969 -6.15625 C 11.984375 -6.15625 7.972656 -8.410156 5.386719 -11.105469 Z M 1.097656 -5.167969 "/></g></g></g><g fill="#121212" fill-opacity="1"><g transform="translate(243.481277, 50.712292)"><g><path d="M 19.957031 0 L 19.957031 -29.796875 L 30.621094 -29.796875 L 30.621094 -36.667969 L 1.375 -36.667969 L 1.375 -29.796875 L 12.09375 -29.796875 L 12.09375 0 Z M 19.957031 0 "/></g></g></g><g fill="#121212" fill-opacity="1"><g transform="translate(274.314961, 50.712292)"><g><path d="M 37.824219 0 L 23.695312 -36.667969 L 13.910156 -36.667969 L -0.273438 0 L 8.300781 0 L 10.609375 -6.320312 L 26.992188 -6.320312 L 29.300781 0 Z M 24.847656 -13.085938 L 12.699219 -13.085938 L 18.800781 -29.90625 Z M 24.847656 -13.085938 "/></g></g></g><g fill="#121212" fill-opacity="1"><g transform="translate(310.754851, 50.712292)"><g><path d="M 19.957031 0 L 19.957031 -29.796875 L 30.621094 -29.796875 L 30.621094 -36.667969 L 1.375 -36.667969 L 1.375 -29.796875 L 12.09375 -29.796875 L 12.09375 0 Z M 19.957031 0 "/></g></g></g><g fill="#121212" fill-opacity="1"><g transform="translate(341.588507, 50.712292)"><g><path d="M 29.578125 0 L 29.578125 -6.761719 L 11.433594 -6.761719 L 11.433594 -15.285156 L 29.191406 -15.285156 L 29.191406 -21.992188 L 11.433594 -21.992188 L 11.433594 -29.960938 L 29.578125 -29.960938 L 29.578125 -36.667969 L 3.628906 -36.667969 L 3.628906 0 Z M 29.578125 0 "/></g></g></g></g></g></g></g></g></g></g><g clip-path="url(#0cef01757e)"><g transform="matrix(1, 0, 0, 1, 5, 67)"><g clip-path="url(#ab8bb1ce83)"><g fill="#4623c6" fill-opacity="1"><g transform="translate(1.399477, 24.803411)"><g><path d="M 9.148438 0 C 14.957031 0 18.988281 -3.671875 18.988281 -9.257812 C 18.988281 -14.847656 14.957031 -18.542969 9.148438 -18.542969 L 1.835938 -18.542969 L 1.835938 0 Z M 5.78125 -15.070312 L 9.148438 -15.070312 C 12.957031 -15.070312 14.957031 -12.539062 14.957031 -9.257812 C 14.957031 -6.117188 12.816406 -3.476562 9.148438 -3.476562 L 5.78125 -3.476562 Z M 5.78125 -15.070312 "/></g></g></g><g fill="#4623c6" fill-opacity="1"><g transform="translate(20.773728, 24.803411)"><g><path d="M 7.507812 -5.226562 L 7.507812 -8.230469 L 0.835938 -8.230469 L 0.835938 -5.226562 Z M 7.507812 -5.226562 "/></g></g></g><g fill="#4623c6" fill-opacity="1"><g transform="translate(28.528919, 24.803411)"><g><path d="M 13.625 0 L 13.625 -3.476562 L 5.78125 -3.476562 L 5.78125 -18.542969 L 1.835938 -18.542969 L 1.835938 0 Z M 13.625 0 "/></g></g></g><g fill="#4623c6" fill-opacity="1"><g transform="translate(42.482791, 24.803411)"><g><path d="M 5.78125 0 L 5.78125 -18.542969 L 1.835938 -18.542969 L 1.835938 0 Z M 5.78125 0 "/></g></g></g><g fill="#4623c6" fill-opacity="1"><g transform="translate(49.515266, 24.803411)"><g><path d="M 18.433594 0 L 18.433594 -18.542969 L 14.484375 -18.542969 L 14.484375 -6.535156 L 5.894531 -18.542969 L 1.835938 -18.542969 L 1.835938 0 L 5.78125 0 L 5.78125 -12.457031 L 14.625 0 Z M 18.433594 0 "/></g></g></g><g fill="#4623c6" fill-opacity="1"><g transform="translate(69.19528, 24.803411)"><g><path d="M 17.710938 0 L 9.84375 -9.84375 L 17.210938 -18.542969 L 12.34375 -18.542969 L 5.78125 -10.257812 L 5.78125 -18.542969 L 1.835938 -18.542969 L 1.835938 0 L 5.78125 0 L 5.78125 -5.699219 L 7.230469 -7.421875 L 12.84375 0 Z M 17.710938 0 "/></g></g></g><g fill="#4623c6" fill-opacity="1"><g transform="translate(86.290189, 24.803411)"><g/></g></g><g fill="#4623c6" fill-opacity="1"><g transform="translate(92.822316, 24.803411)"><g><path d="M 10.675781 0.332031 C 14.902344 0.332031 17.238281 -1.917969 18.570312 -4.226562 L 15.179688 -5.867188 C 14.402344 -4.335938 12.734375 -3.167969 10.675781 -3.167969 C 7.449219 -3.167969 5.003906 -5.753906 5.003906 -9.257812 C 5.003906 -12.761719 7.449219 -15.347656 10.675781 -15.347656 C 12.734375 -15.347656 14.402344 -14.152344 15.179688 -12.648438 L 18.570312 -14.316406 C 17.265625 -16.625 14.902344 -18.851562 10.675781 -18.851562 C 5.253906 -18.851562 0.945312 -14.957031 0.945312 -9.257812 C 0.945312 -3.558594 5.253906 0.332031 10.675781 0.332031 Z M 10.675781 0.332031 "/></g></g></g><g fill="#4623c6" fill-opacity="1"><g transform="translate(111.334861, 24.803411)"><g><path d="M 0.945312 -9.257812 C 0.945312 -3.671875 5.03125 0.332031 10.621094 0.332031 C 16.238281 0.332031 20.324219 -3.671875 20.324219 -9.257812 C 20.324219 -14.847656 16.238281 -18.851562 10.621094 -18.851562 C 5.03125 -18.851562 0.945312 -14.847656 0.945312 -9.257812 Z M 16.265625 -9.257812 C 16.265625 -5.8125 14.039062 -3.167969 10.621094 -3.167969 C 7.199219 -3.167969 5.003906 -5.8125 5.003906 -9.257812 C 5.003906 -12.734375 7.199219 -15.347656 10.621094 -15.347656 C 14.039062 -15.347656 16.265625 -12.734375 16.265625 -9.257812 Z M 16.265625 -9.257812 "/></g></g></g><g fill="#4623c6" fill-opacity="1"><g transform="translate(132.015559, 24.803411)"><g><path d="M 13.625 0 L 13.625 -3.476562 L 5.78125 -3.476562 L 5.78125 -18.542969 L 1.835938 -18.542969 L 1.835938 0 Z M 13.625 0 "/></g></g></g><g fill="#4623c6" fill-opacity="1"><g transform="translate(145.969431, 24.803411)"><g><path d="M 0.945312 -9.257812 C 0.945312 -3.671875 5.03125 0.332031 10.621094 0.332031 C 16.238281 0.332031 20.324219 -3.671875 20.324219 -9.257812 C 20.324219 -14.847656 16.238281 -18.851562 10.621094 -18.851562 C 5.03125 -18.851562 0.945312 -14.847656 0.945312 -9.257812 Z M 16.265625 -9.257812 C 16.265625 -5.8125 14.039062 -3.167969 10.621094 -3.167969 C 7.199219 -3.167969 5.003906 -5.8125 5.003906 -9.257812 C 5.003906 -12.734375 7.199219 -15.347656 10.621094 -15.347656 C 14.039062 -15.347656 16.265625 -12.734375 16.265625 -9.257812 Z M 16.265625 -9.257812 "/></g></g></g><g fill="#4623c6" fill-opacity="1"><g transform="translate(166.650128, 24.803411)"><g><path d="M 21.9375 0 L 21.9375 -18.542969 L 16.375 -18.542969 L 11.871094 -6.976562 L 7.367188 -18.542969 L 1.835938 -18.542969 L 1.835938 0 L 5.78125 0 L 5.78125 -13.34375 L 11.011719 0 L 12.734375 0 L 17.960938 -13.34375 L 17.960938 0 Z M 21.9375 0 "/></g></g></g><g fill="#4623c6" fill-opacity="1"><g transform="translate(189.832539, 24.803411)"><g><path d="M 11.898438 0 C 15.429688 0 17.292969 -2.222656 17.292969 -5.003906 C 17.292969 -7.339844 15.707031 -9.257812 13.734375 -9.5625 C 15.484375 -9.925781 16.933594 -11.484375 16.933594 -13.816406 C 16.933594 -16.292969 15.125 -18.542969 11.59375 -18.542969 L 1.835938 -18.542969 L 1.835938 0 Z M 5.78125 -15.179688 L 10.730469 -15.179688 C 12.066406 -15.179688 12.898438 -14.289062 12.898438 -13.152344 C 12.898438 -11.953125 12.066406 -11.09375 10.730469 -11.09375 L 5.78125 -11.09375 Z M 5.78125 -7.730469 L 10.871094 -7.730469 C 12.425781 -7.730469 13.261719 -6.726562 13.261719 -5.558594 C 13.261719 -4.226562 12.371094 -3.363281 10.871094 -3.363281 L 5.78125 -3.363281 Z M 5.78125 -7.730469 "/></g></g></g><g fill="#4623c6" fill-opacity="1"><g transform="translate(207.677962, 24.803411)"><g><path d="M 0.945312 -9.257812 C 0.945312 -3.671875 5.03125 0.332031 10.621094 0.332031 C 16.238281 0.332031 20.324219 -3.671875 20.324219 -9.257812 C 20.324219 -14.847656 16.238281 -18.851562 10.621094 -18.851562 C 5.03125 -18.851562 0.945312 -14.847656 0.945312 -9.257812 Z M 16.265625 -9.257812 C 16.265625 -5.8125 14.039062 -3.167969 10.621094 -3.167969 C 7.199219 -3.167969 5.003906 -5.8125 5.003906 -9.257812 C 5.003906 -12.734375 7.199219 -15.347656 10.621094 -15.347656 C 14.039062 -15.347656 16.265625 -12.734375 16.265625 -9.257812 Z M 16.265625 -9.257812 "/></g></g></g><g fill="#4623c6" fill-opacity="1"><g transform="translate(228.358648, 24.803411)"><g/></g></g><g fill="#4623c6" fill-opacity="1"><g transform="translate(234.890798, 24.803411)"><g><path d="M 7.757812 3.808594 C 5.867188 0.472656 4.949219 -2.585938 4.949219 -6.757812 C 4.949219 -10.925781 5.867188 -13.984375 7.757812 -17.375 L 5.53125 -19.042969 C 2.835938 -15.988281 1.140625 -11.230469 1.140625 -6.757812 C 1.140625 -2.28125 2.835938 2.503906 5.53125 5.53125 Z M 7.757812 3.808594 "/></g></g></g><g fill="#4623c6" fill-opacity="1"><g transform="translate(242.562596, 24.803411)"><g><path d="M 5.78125 0 L 5.78125 -6.644531 L 10.507812 -6.644531 C 14.511719 -6.644531 16.738281 -9.339844 16.738281 -12.566406 C 16.738281 -15.820312 14.539062 -18.542969 10.507812 -18.542969 L 1.835938 -18.542969 L 1.835938 0 Z M 12.707031 -12.59375 C 12.707031 -11.039062 11.539062 -10.035156 9.980469 -10.035156 L 5.78125 -10.035156 L 5.78125 -15.152344 L 9.980469 -15.152344 C 11.539062 -15.152344 12.707031 -14.125 12.707031 -12.59375 Z M 12.707031 -12.59375 "/></g></g></g><g fill="#4623c6" fill-opacity="1"><g transform="translate(259.323933, 24.803411)"><g><path d="M 11.984375 0 L 19.128906 -18.542969 L 14.625 -18.542969 L 9.507812 -4.28125 L 4.363281 -18.542969 L -0.140625 -18.542969 L 7.035156 0 Z M 11.984375 0 "/></g></g></g><g fill="#4623c6" fill-opacity="1"><g transform="translate(277.753085, 24.803411)"><g><path d="M 10.09375 0 L 10.09375 -15.070312 L 15.484375 -15.070312 L 15.484375 -18.542969 L 0.695312 -18.542969 L 0.695312 -15.070312 L 6.117188 -15.070312 L 6.117188 0 Z M 10.09375 0 "/></g></g></g><g fill="#4623c6" fill-opacity="1"><g transform="translate(293.346987, 24.803411)"><g><path d="M 3.308594 -6.757812 C 3.308594 -2.585938 2.390625 0.472656 0.472656 3.808594 L 2.695312 5.53125 C 5.421875 2.503906 7.144531 -2.28125 7.144531 -6.757812 C 7.144531 -11.230469 5.421875 -15.988281 2.695312 -19.042969 L 0.472656 -17.375 C 2.390625 -13.984375 3.308594 -10.925781 3.308594 -6.757812 Z M 3.308594 -6.757812 "/></g></g></g><g fill="#4623c6" fill-opacity="1"><g transform="translate(301.018785, 24.803411)"><g/></g></g><g fill="#4623c6" fill-opacity="1"><g transform="translate(307.550912, 24.803411)"><g><path d="M 13.625 0 L 13.625 -3.476562 L 5.78125 -3.476562 L 5.78125 -18.542969 L 1.835938 -18.542969 L 1.835938 0 Z M 13.625 0 "/></g></g></g><g fill="#4623c6" fill-opacity="1"><g transform="translate(321.504784, 24.803411)"><g><path d="M 10.09375 0 L 10.09375 -15.070312 L 15.484375 -15.070312 L 15.484375 -18.542969 L 0.695312 -18.542969 L 0.695312 -15.070312 L 6.117188 -15.070312 L 6.117188 0 Z M 10.09375 0 "/></g></g></g><g fill="#4623c6" fill-opacity="1"><g transform="translate(337.098663, 24.803411)"><g><path d="M 9.148438 0 C 14.957031 0 18.988281 -3.671875 18.988281 -9.257812 C 18.988281 -14.847656 14.957031 -18.542969 9.148438 -18.542969 L 1.835938 -18.542969 L 1.835938 0 Z M 5.78125 -15.070312 L 9.148438 -15.070312 C 12.957031 -15.070312 14.957031 -12.539062 14.957031 -9.257812 C 14.957031 -6.117188 12.816406 -3.476562 9.148438 -3.476562 L 5.78125 -3.476562 Z M 5.78125 -15.070312 "/></g></g></g><g fill="#4623c6" fill-opacity="1"><g transform="translate(356.472914, 24.803411)"><g><path d="M 1.308594 -1.945312 C 1.308594 -0.722656 2.335938 0.304688 3.558594 0.304688 C 4.78125 0.304688 5.8125 -0.722656 5.8125 -1.945312 C 5.8125 -3.167969 4.78125 -4.199219 3.558594 -4.199219 C 2.335938 -4.199219 1.308594 -3.167969 1.308594 -1.945312 Z M 1.308594 -1.945312 "/></g></g></g></g></g></g></g></g></svg>